M48
;GenerationSoftware,Autodesk,EAGLE,9.5.1*%
;CreationDate,2019-11-10T13:35:38Z*%
FMAT,2
ICI,OFF
METRIC,TZ,000.000
T2C0.800
T1C1.016
%
G90
M71
T1
X96280Y49430
X126760Y25780
X72870Y58250
X72870Y63330
X131860Y59870
X126760Y49430
X129320Y59870
X126780Y59870
X91200Y49430
X93740Y49430
X124240Y59870
X98820Y49430
X101360Y49430
X103900Y49430
X106440Y49430
X108980Y49430
X111520Y49430
X114060Y49430
X116600Y49430
X119140Y49430
X121680Y49430
X124220Y49430
X72870Y60790
X91200Y25780
X93740Y25780
X96280Y25780
X98820Y25780
X101360Y25780
X103900Y25780
X106440Y25780
X108980Y25780
X111520Y25780
X114060Y25780
X116600Y25780
X119140Y25780
X121680Y25780
X124220Y25780
T2
X75050Y40920
X73050Y40920
X71050Y40920
X77080Y30920
X73080Y30920
X71080Y30920
X75080Y30920
X77050Y40920
M30