G04 EAGLE Gerber RS-274X export*
G75*
%MOMM*%
%FSLAX34Y34*%
%LPD*%
%INSilkscreen Top*%
%IPPOS*%
%AMOC8*
5,1,8,0,0,1.08239X$1,22.5*%
G01*
%ADD10C,0.127000*%
%ADD11C,0.254000*%
%ADD12C,0.101600*%
%ADD13C,0.152400*%


D10*
X790500Y399200D02*
X790500Y419200D01*
D11*
X690500Y424200D02*
X690500Y394200D01*
X790500Y387200D02*
X790500Y431200D01*
X772500Y431200D01*
X708500Y431200D02*
X690500Y431200D01*
X690500Y387200D01*
X790500Y387200D01*
X790500Y431200D02*
X790500Y437200D01*
X772500Y437200D01*
X772500Y431200D01*
X708500Y431200D01*
X708500Y437200D01*
X690500Y437200D01*
X690500Y431200D01*
D12*
X750036Y376731D02*
X751350Y375418D01*
X752663Y375418D01*
X753977Y376731D01*
X753977Y383299D01*
X755290Y383299D02*
X752663Y383299D01*
X758222Y380672D02*
X760849Y383299D01*
X760849Y375418D01*
X758222Y375418D02*
X763476Y375418D01*
D10*
X790800Y319200D02*
X790800Y299200D01*
D11*
X690800Y294200D02*
X690800Y324200D01*
X790800Y331200D02*
X790800Y287200D01*
X790800Y331200D02*
X772800Y331200D01*
X708800Y331200D02*
X690800Y331200D01*
X690800Y287200D01*
X790800Y287200D01*
X790800Y331200D02*
X790800Y337200D01*
X772800Y337200D01*
X772800Y331200D01*
X708800Y331200D01*
X708800Y337200D01*
X690800Y337200D01*
X690800Y331200D01*
D12*
X760336Y266731D02*
X761650Y265418D01*
X762963Y265418D01*
X764277Y266731D01*
X764277Y273299D01*
X765590Y273299D02*
X762963Y273299D01*
X768522Y265418D02*
X773776Y265418D01*
X768522Y265418D02*
X773776Y270672D01*
X773776Y271985D01*
X772463Y273299D01*
X769836Y273299D01*
X768522Y271985D01*
D13*
X1210450Y507000D02*
X1223150Y507000D01*
X1229500Y500650D01*
X1229500Y487950D01*
X1223150Y481600D01*
X1229500Y500650D02*
X1235850Y507000D01*
X1248550Y507000D01*
X1254900Y500650D01*
X1254900Y487950D01*
X1248550Y481600D01*
X1235850Y481600D01*
X1229500Y487950D01*
X1185050Y507000D02*
X1178700Y500650D01*
X1185050Y507000D02*
X1197750Y507000D01*
X1204100Y500650D01*
X1204100Y487950D01*
X1197750Y481600D01*
X1185050Y481600D01*
X1178700Y487950D01*
X1204100Y500650D02*
X1210450Y507000D01*
X1204100Y487950D02*
X1210450Y481600D01*
X1223150Y481600D01*
X1146950Y507000D02*
X1134250Y507000D01*
X1146950Y507000D02*
X1153300Y500650D01*
X1153300Y487950D01*
X1146950Y481600D01*
X1153300Y500650D02*
X1159650Y507000D01*
X1172350Y507000D01*
X1178700Y500650D01*
X1178700Y487950D01*
X1172350Y481600D01*
X1159650Y481600D01*
X1153300Y487950D01*
X1108850Y507000D02*
X1102500Y500650D01*
X1108850Y507000D02*
X1121550Y507000D01*
X1127900Y500650D01*
X1127900Y487950D01*
X1121550Y481600D01*
X1108850Y481600D01*
X1102500Y487950D01*
X1127900Y500650D02*
X1134250Y507000D01*
X1127900Y487950D02*
X1134250Y481600D01*
X1146950Y481600D01*
X1070750Y507000D02*
X1058050Y507000D01*
X1070750Y507000D02*
X1077100Y500650D01*
X1077100Y487950D01*
X1070750Y481600D01*
X1077100Y500650D02*
X1083450Y507000D01*
X1096150Y507000D01*
X1102500Y500650D01*
X1102500Y487950D01*
X1096150Y481600D01*
X1083450Y481600D01*
X1077100Y487950D01*
X1032650Y507000D02*
X1026300Y500650D01*
X1032650Y507000D02*
X1045350Y507000D01*
X1051700Y500650D01*
X1051700Y487950D01*
X1045350Y481600D01*
X1032650Y481600D01*
X1026300Y487950D01*
X1051700Y500650D02*
X1058050Y507000D01*
X1051700Y487950D02*
X1058050Y481600D01*
X1070750Y481600D01*
X994550Y507000D02*
X981850Y507000D01*
X994550Y507000D02*
X1000900Y500650D01*
X1000900Y487950D01*
X994550Y481600D01*
X1000900Y500650D02*
X1007250Y507000D01*
X1019950Y507000D01*
X1026300Y500650D01*
X1026300Y487950D01*
X1019950Y481600D01*
X1007250Y481600D01*
X1000900Y487950D01*
X956450Y507000D02*
X950100Y500650D01*
X956450Y507000D02*
X969150Y507000D01*
X975500Y500650D01*
X975500Y487950D01*
X969150Y481600D01*
X956450Y481600D01*
X950100Y487950D01*
X975500Y500650D02*
X981850Y507000D01*
X975500Y487950D02*
X981850Y481600D01*
X994550Y481600D01*
X918350Y507000D02*
X905650Y507000D01*
X918350Y507000D02*
X924700Y500650D01*
X924700Y487950D01*
X918350Y481600D01*
X924700Y500650D02*
X931050Y507000D01*
X943750Y507000D01*
X950100Y500650D01*
X950100Y487950D01*
X943750Y481600D01*
X931050Y481600D01*
X924700Y487950D01*
X899300Y487950D02*
X899300Y500650D01*
X905650Y507000D01*
X899300Y487950D02*
X905650Y481600D01*
X918350Y481600D01*
X1254900Y500650D02*
X1261250Y507000D01*
X1273950Y507000D01*
X1280300Y500650D01*
X1280300Y487950D01*
X1273950Y481600D01*
X1261250Y481600D01*
X1254900Y487950D01*
D10*
X901080Y513223D02*
X899173Y515130D01*
X901080Y513223D02*
X902986Y513223D01*
X904893Y515130D01*
X904893Y524663D01*
X902986Y524663D02*
X906800Y524663D01*
X910867Y524663D02*
X910867Y513223D01*
X910867Y524663D02*
X916587Y524663D01*
X918493Y522756D01*
X918493Y518943D01*
X916587Y517036D01*
X910867Y517036D01*
X922561Y520850D02*
X926374Y524663D01*
X926374Y513223D01*
X922561Y513223D02*
X930187Y513223D01*
D13*
X1210450Y270500D02*
X1223150Y270500D01*
X1229500Y264150D01*
X1229500Y251450D01*
X1223150Y245100D01*
X1229500Y264150D02*
X1235850Y270500D01*
X1248550Y270500D01*
X1254900Y264150D01*
X1254900Y251450D01*
X1248550Y245100D01*
X1235850Y245100D01*
X1229500Y251450D01*
X1185050Y270500D02*
X1178700Y264150D01*
X1185050Y270500D02*
X1197750Y270500D01*
X1204100Y264150D01*
X1204100Y251450D01*
X1197750Y245100D01*
X1185050Y245100D01*
X1178700Y251450D01*
X1204100Y264150D02*
X1210450Y270500D01*
X1204100Y251450D02*
X1210450Y245100D01*
X1223150Y245100D01*
X1146950Y270500D02*
X1134250Y270500D01*
X1146950Y270500D02*
X1153300Y264150D01*
X1153300Y251450D01*
X1146950Y245100D01*
X1153300Y264150D02*
X1159650Y270500D01*
X1172350Y270500D01*
X1178700Y264150D01*
X1178700Y251450D01*
X1172350Y245100D01*
X1159650Y245100D01*
X1153300Y251450D01*
X1108850Y270500D02*
X1102500Y264150D01*
X1108850Y270500D02*
X1121550Y270500D01*
X1127900Y264150D01*
X1127900Y251450D01*
X1121550Y245100D01*
X1108850Y245100D01*
X1102500Y251450D01*
X1127900Y264150D02*
X1134250Y270500D01*
X1127900Y251450D02*
X1134250Y245100D01*
X1146950Y245100D01*
X1070750Y270500D02*
X1058050Y270500D01*
X1070750Y270500D02*
X1077100Y264150D01*
X1077100Y251450D01*
X1070750Y245100D01*
X1077100Y264150D02*
X1083450Y270500D01*
X1096150Y270500D01*
X1102500Y264150D01*
X1102500Y251450D01*
X1096150Y245100D01*
X1083450Y245100D01*
X1077100Y251450D01*
X1032650Y270500D02*
X1026300Y264150D01*
X1032650Y270500D02*
X1045350Y270500D01*
X1051700Y264150D01*
X1051700Y251450D01*
X1045350Y245100D01*
X1032650Y245100D01*
X1026300Y251450D01*
X1051700Y264150D02*
X1058050Y270500D01*
X1051700Y251450D02*
X1058050Y245100D01*
X1070750Y245100D01*
X994550Y270500D02*
X981850Y270500D01*
X994550Y270500D02*
X1000900Y264150D01*
X1000900Y251450D01*
X994550Y245100D01*
X1000900Y264150D02*
X1007250Y270500D01*
X1019950Y270500D01*
X1026300Y264150D01*
X1026300Y251450D01*
X1019950Y245100D01*
X1007250Y245100D01*
X1000900Y251450D01*
X956450Y270500D02*
X950100Y264150D01*
X956450Y270500D02*
X969150Y270500D01*
X975500Y264150D01*
X975500Y251450D01*
X969150Y245100D01*
X956450Y245100D01*
X950100Y251450D01*
X975500Y264150D02*
X981850Y270500D01*
X975500Y251450D02*
X981850Y245100D01*
X994550Y245100D01*
X918350Y270500D02*
X905650Y270500D01*
X918350Y270500D02*
X924700Y264150D01*
X924700Y251450D01*
X918350Y245100D01*
X924700Y264150D02*
X931050Y270500D01*
X943750Y270500D01*
X950100Y264150D01*
X950100Y251450D01*
X943750Y245100D01*
X931050Y245100D01*
X924700Y251450D01*
X899300Y251450D02*
X899300Y264150D01*
X905650Y270500D01*
X899300Y251450D02*
X905650Y245100D01*
X918350Y245100D01*
X1254900Y264150D02*
X1261250Y270500D01*
X1273950Y270500D01*
X1280300Y264150D01*
X1280300Y251450D01*
X1273950Y245100D01*
X1261250Y245100D01*
X1254900Y251450D01*
D10*
X901080Y276723D02*
X899173Y278630D01*
X901080Y276723D02*
X902986Y276723D01*
X904893Y278630D01*
X904893Y288163D01*
X902986Y288163D02*
X906800Y288163D01*
X910867Y288163D02*
X910867Y276723D01*
X910867Y288163D02*
X916587Y288163D01*
X918493Y286256D01*
X918493Y282443D01*
X916587Y280536D01*
X910867Y280536D01*
X922561Y276723D02*
X930187Y276723D01*
X922561Y276723D02*
X930187Y284350D01*
X930187Y286256D01*
X928281Y288163D01*
X924468Y288163D01*
X922561Y286256D01*
D13*
X716000Y576150D02*
X716000Y588850D01*
X722350Y595200D01*
X735050Y595200D01*
X741400Y588850D01*
X722350Y595200D02*
X716000Y601550D01*
X716000Y614250D01*
X722350Y620600D01*
X735050Y620600D01*
X741400Y614250D01*
X741400Y601550D01*
X735050Y595200D01*
X735050Y569800D02*
X722350Y569800D01*
X716000Y576150D01*
X735050Y569800D02*
X741400Y576150D01*
X741400Y588850D01*
X722350Y620600D02*
X716000Y626950D01*
X716000Y639650D01*
X722350Y646000D01*
X735050Y646000D01*
X741400Y639650D01*
X741400Y626950D01*
X735050Y620600D01*
D10*
X709777Y571580D02*
X707870Y569673D01*
X709777Y571580D02*
X709777Y573486D01*
X707870Y575393D01*
X698337Y575393D01*
X698337Y573486D02*
X698337Y577300D01*
X698337Y581367D02*
X709777Y581367D01*
X698337Y581367D02*
X698337Y587087D01*
X700244Y588993D01*
X704057Y588993D01*
X705964Y587087D01*
X705964Y581367D01*
X700244Y593061D02*
X698337Y594968D01*
X698337Y598781D01*
X700244Y600687D01*
X702151Y600687D01*
X704057Y598781D01*
X704057Y596874D01*
X704057Y598781D02*
X705964Y600687D01*
X707870Y600687D01*
X709777Y598781D01*
X709777Y594968D01*
X707870Y593061D01*
D13*
X1274150Y586000D02*
X1280500Y592350D01*
X1274150Y586000D02*
X1261450Y586000D01*
X1255100Y592350D01*
X1255100Y605050D01*
X1261450Y611400D01*
X1274150Y611400D01*
X1280500Y605050D01*
X1312250Y586000D02*
X1324950Y586000D01*
X1312250Y586000D02*
X1305900Y592350D01*
X1305900Y605050D01*
X1312250Y611400D01*
X1305900Y592350D02*
X1299550Y586000D01*
X1286850Y586000D01*
X1280500Y592350D01*
X1280500Y605050D01*
X1286850Y611400D01*
X1299550Y611400D01*
X1305900Y605050D01*
X1331300Y605050D02*
X1331300Y592350D01*
X1324950Y586000D01*
X1331300Y605050D02*
X1324950Y611400D01*
X1312250Y611400D01*
X1248750Y586000D02*
X1236050Y586000D01*
X1229700Y592350D01*
X1229700Y605050D01*
X1236050Y611400D01*
X1255100Y592350D02*
X1248750Y586000D01*
X1255100Y605050D02*
X1248750Y611400D01*
X1236050Y611400D01*
D10*
X1297615Y570254D02*
X1299522Y568347D01*
X1301428Y568347D01*
X1303335Y570254D01*
X1303335Y579787D01*
X1301428Y579787D02*
X1305242Y579787D01*
X1309309Y579787D02*
X1309309Y568347D01*
X1309309Y579787D02*
X1315029Y579787D01*
X1316936Y577880D01*
X1316936Y574067D01*
X1315029Y572160D01*
X1309309Y572160D01*
X1326723Y568347D02*
X1326723Y579787D01*
X1321003Y574067D01*
X1328629Y574067D01*
M02*
