G04 EAGLE Gerber RS-274X export*
G75*
%MOMM*%
%FSLAX34Y34*%
%LPD*%
%INTop Copper*%
%IPPOS*%
%AMOC8*
5,1,8,0,0,1.08239X$1,22.5*%
G01*
%ADD10R,1.308000X1.308000*%
%ADD11C,1.308000*%
%ADD12C,1.524000*%
%ADD13C,1.000000*%


D10*
X770500Y409200D03*
D11*
X750500Y409200D03*
X730500Y409200D03*
X710500Y409200D03*
D10*
X770800Y309200D03*
D11*
X750800Y309200D03*
X730800Y309200D03*
X710800Y309200D03*
D12*
X912000Y486680D02*
X912000Y501920D01*
X937400Y501920D02*
X937400Y486680D01*
X962800Y486680D02*
X962800Y501920D01*
X988200Y501920D02*
X988200Y486680D01*
X1013600Y486680D02*
X1013600Y501920D01*
X1039000Y501920D02*
X1039000Y486680D01*
X1064400Y486680D02*
X1064400Y501920D01*
X1089800Y501920D02*
X1089800Y486680D01*
X1115200Y486680D02*
X1115200Y501920D01*
X1140600Y501920D02*
X1140600Y486680D01*
X1166000Y486680D02*
X1166000Y501920D01*
X1191400Y501920D02*
X1191400Y486680D01*
X1216800Y486680D02*
X1216800Y501920D01*
X1242200Y501920D02*
X1242200Y486680D01*
X1267600Y486680D02*
X1267600Y501920D01*
X912000Y265420D02*
X912000Y250180D01*
X937400Y250180D02*
X937400Y265420D01*
X962800Y265420D02*
X962800Y250180D01*
X988200Y250180D02*
X988200Y265420D01*
X1013600Y265420D02*
X1013600Y250180D01*
X1039000Y250180D02*
X1039000Y265420D01*
X1064400Y265420D02*
X1064400Y250180D01*
X1089800Y250180D02*
X1089800Y265420D01*
X1115200Y265420D02*
X1115200Y250180D01*
X1140600Y250180D02*
X1140600Y265420D01*
X1166000Y265420D02*
X1166000Y250180D01*
X1191400Y250180D02*
X1191400Y265420D01*
X1216800Y265420D02*
X1216800Y250180D01*
X1242200Y250180D02*
X1242200Y265420D01*
X1267600Y265420D02*
X1267600Y250180D01*
X736320Y582500D02*
X721080Y582500D01*
X721080Y607900D02*
X736320Y607900D01*
X736320Y633300D02*
X721080Y633300D01*
X1318600Y606320D02*
X1318600Y591080D01*
X1293200Y591080D02*
X1293200Y606320D01*
X1267800Y606320D02*
X1267800Y591080D01*
X1242400Y591080D02*
X1242400Y606320D01*
D13*
X800000Y207800D02*
X682200Y207800D01*
X600000Y290000D01*
X600000Y453800D01*
X728700Y582500D01*
X928789Y208789D02*
X937577Y200000D01*
X928789Y208789D02*
X912000Y225577D01*
X912000Y257800D01*
X937577Y200000D02*
X1300000Y200000D01*
X1340000Y240000D01*
X1340000Y577300D02*
X1318600Y598700D01*
X1340000Y577300D02*
X1340000Y240000D01*
X750500Y309500D02*
X750500Y409200D01*
X750500Y309500D02*
X750800Y309200D01*
X750800Y257000D02*
X800000Y207800D01*
X750800Y257000D02*
X750800Y309200D01*
X927800Y207800D02*
X928789Y208789D01*
X927800Y207800D02*
X800000Y207800D01*
X794800Y333200D02*
X794800Y384900D01*
X794800Y333200D02*
X770800Y309200D01*
X794800Y384900D02*
X770500Y409200D01*
X1194773Y334773D02*
X1293200Y433200D01*
X1293200Y598700D01*
X1293200Y646800D01*
X1270000Y670000D01*
X765400Y670000D02*
X728700Y633300D01*
X765400Y670000D02*
X1270000Y670000D01*
X1194773Y334773D02*
X1002151Y334773D01*
X937400Y270023D02*
X937400Y257800D01*
X937400Y270023D02*
X1002151Y334773D01*
X930800Y309200D02*
X770800Y309200D01*
X930800Y309200D02*
X940000Y300000D01*
X940000Y260400D01*
X937400Y257800D01*
X1166000Y476000D02*
X1166000Y494300D01*
X1166000Y476000D02*
X1150000Y460000D01*
X890000Y460000D01*
X730800Y610000D02*
X728700Y607900D01*
X730800Y610000D02*
X760000Y610000D01*
X800000Y570000D01*
X800000Y550000D02*
X890000Y460000D01*
X800000Y550000D02*
X800000Y570000D01*
X1171977Y598700D02*
X1242400Y598700D01*
X1089800Y516523D02*
X1089800Y494300D01*
X1089800Y516523D02*
X1171977Y598700D01*
X1254361Y634361D02*
X1256544Y632179D01*
X1254361Y634361D02*
X1248723Y640000D01*
X1160000Y640000D01*
X1064400Y544400D01*
X1064400Y494300D01*
X1256544Y632179D02*
X1267800Y620923D01*
X1267800Y598700D01*
X684800Y383500D02*
X684800Y335200D01*
X710800Y309200D01*
X684800Y383500D02*
X710500Y409200D01*
X1242200Y432200D02*
X1242200Y494300D01*
X732825Y460000D02*
X710500Y437675D01*
X710500Y409200D01*
X1190000Y380000D02*
X1242200Y432200D01*
X1190000Y380000D02*
X850000Y380000D01*
X770000Y460000D02*
X732825Y460000D01*
X770000Y460000D02*
X850000Y380000D01*
X730800Y408900D02*
X730500Y409200D01*
X730800Y408900D02*
X730800Y309200D01*
X710000Y500000D02*
X792525Y500000D01*
X864049Y428476D01*
X710000Y500000D02*
X650000Y440000D01*
X650000Y300000D01*
X670000Y280000D01*
X710000Y280000D01*
X730800Y300800D02*
X730800Y309200D01*
X730800Y300800D02*
X710000Y280000D01*
X1216800Y494300D02*
X1220000Y491100D01*
X1220000Y470000D01*
X1178476Y428476D01*
X864049Y428476D01*
M02*
