G04 EAGLE Gerber RS-274X export*
G75*
%MOMM*%
%FSLAX34Y34*%
%LPD*%
%INSoldermask Top*%
%IPPOS*%
%AMOC8*
5,1,8,0,0,1.08239X$1,22.5*%
G01*
%ADD10R,1.511200X1.511200*%
%ADD11C,1.511200*%
%ADD12C,1.727200*%


D10*
X770500Y409200D03*
D11*
X750500Y409200D03*
X730500Y409200D03*
X710500Y409200D03*
D10*
X770800Y309200D03*
D11*
X750800Y309200D03*
X730800Y309200D03*
X710800Y309200D03*
D12*
X912000Y486680D02*
X912000Y501920D01*
X937400Y501920D02*
X937400Y486680D01*
X962800Y486680D02*
X962800Y501920D01*
X988200Y501920D02*
X988200Y486680D01*
X1013600Y486680D02*
X1013600Y501920D01*
X1039000Y501920D02*
X1039000Y486680D01*
X1064400Y486680D02*
X1064400Y501920D01*
X1089800Y501920D02*
X1089800Y486680D01*
X1115200Y486680D02*
X1115200Y501920D01*
X1140600Y501920D02*
X1140600Y486680D01*
X1166000Y486680D02*
X1166000Y501920D01*
X1191400Y501920D02*
X1191400Y486680D01*
X1216800Y486680D02*
X1216800Y501920D01*
X1242200Y501920D02*
X1242200Y486680D01*
X1267600Y486680D02*
X1267600Y501920D01*
X912000Y265420D02*
X912000Y250180D01*
X937400Y250180D02*
X937400Y265420D01*
X962800Y265420D02*
X962800Y250180D01*
X988200Y250180D02*
X988200Y265420D01*
X1013600Y265420D02*
X1013600Y250180D01*
X1039000Y250180D02*
X1039000Y265420D01*
X1064400Y265420D02*
X1064400Y250180D01*
X1089800Y250180D02*
X1089800Y265420D01*
X1115200Y265420D02*
X1115200Y250180D01*
X1140600Y250180D02*
X1140600Y265420D01*
X1166000Y265420D02*
X1166000Y250180D01*
X1191400Y250180D02*
X1191400Y265420D01*
X1216800Y265420D02*
X1216800Y250180D01*
X1242200Y250180D02*
X1242200Y265420D01*
X1267600Y265420D02*
X1267600Y250180D01*
X736320Y582500D02*
X721080Y582500D01*
X721080Y607900D02*
X736320Y607900D01*
X736320Y633300D02*
X721080Y633300D01*
X1318600Y606320D02*
X1318600Y591080D01*
X1293200Y591080D02*
X1293200Y606320D01*
X1267800Y606320D02*
X1267800Y591080D01*
X1242400Y591080D02*
X1242400Y606320D01*
M02*
